<?xml version="1.0" standalone="no"?>
<!DOCTYPE svg PUBLIC "-//W3C//DTD SVG 20010904//EN"
 "http://www.w3.org/TR/2001/REC-SVG-20010904/DTD/svg10.dtd">
<svg version="1.0" xmlns="http://www.w3.org/2000/svg"
 width="8001.000000pt" height="4501.000000pt" viewBox="0 0 8001.000000 4501.000000"
 preserveAspectRatio="xMidYMid meet">

<g transform="translate(0.000000,4501.000000) scale(0.100000,-0.100000)"
fill="#000000" stroke="none">
<path d="M66254 35090 c-365 -39 -689 -200 -949 -471 -191 -201 -320 -447
-388 -741 l-21 -93 -6 -5230 c-5 -3845 -10 -5272 -18 -5390 -34 -452 -89 -962
-128 -1174 -116 -635 -415 -1313 -839 -1906 -776 -1085 -1911 -1874 -3141
-2184 -1154 -291 -2295 -291 -3449 1 -777 196 -1555 524 -2090 881 -589 394
-1059 890 -1427 1506 -89 148 -248 468 -317 636 -245 594 -394 1213 -456 1895
-33 357 -30 985 6 1365 67 702 302 1427 669 2065 763 1325 2115 2378 3495
2724 594 148 1104 203 1805 193 595 -8 1139 -67 1795 -193 348 -67 554 -125
1280 -360 464 -150 702 -238 1004 -371 175 -77 215 -81 266 -30 24 24 35 46
40 78 3 24 5 256 3 514 -3 468 -3 470 -26 517 -38 76 -84 110 -233 168 -1086
424 -2192 701 -3334 834 -1617 189 -3533 9 -5120 -480 -1173 -362 -2341 -963
-3302 -1701 -1094 -839 -1852 -1962 -2166 -3208 -77 -307 -120 -548 -154 -875
-24 -237 -24 -847 0 -1090 128 -1263 539 -2273 1293 -3175 137 -163 436 -469
619 -633 436 -389 963 -759 1560 -1095 336 -189 901 -453 1290 -602 1079 -415
2325 -681 3695 -789 630 -50 1522 -70 2090 -47 2605 106 4752 725 6440 1856
472 315 809 593 1180 971 447 456 759 892 1034 1444 358 719 539 1446 587
2350 7 145 8 1888 3 5935 l-7 5730 -23 46 c-13 26 -40 61 -61 78 -77 64 -23
61 -1282 60 -630 -1 -1178 -5 -1217 -9z"/>
<path d="M20290 30380 c-2201 -90 -4126 -561 -5654 -1383 -1596 -859 -2652
-1950 -3184 -3289 -208 -522 -320 -1004 -394 -1698 -16 -157 -24 -11842 -8
-11909 16 -62 63 -126 118 -158 l47 -28 1225 0 c1359 0 1279 -4 1499 67 534
171 930 624 1038 1188 17 91 18 328 24 5365 4 2899 10 5295 13 5325 4 30 13
141 22 245 21 266 71 704 99 870 183 1083 876 2217 1849 3028 905 754 1923
1162 3226 1293 218 22 840 30 1067 15 853 -59 1675 -261 2493 -613 636 -274
1112 -583 1550 -1005 859 -828 1394 -2028 1535 -3443 54 -550 38 -1257 -40
-1740 -136 -831 -480 -1623 -1015 -2335 -757 -1007 -1848 -1782 -2955 -2100
-564 -162 -1151 -238 -1830 -238 -470 0 -826 26 -1330 98 -693 99 -1007 175
-1780 428 -209 69 -433 142 -499 162 -111 35 -411 155 -645 259 -141 62 -189
60 -239 -14 l-23 -34 3 -510 3 -511 27 -46 c42 -71 74 -92 245 -159 1168 -459
2441 -758 3653 -859 1180 -99 2452 -18 3692 235 1544 314 2971 939 4216 1847
336 245 585 460 872 753 452 462 787 935 1070 1509 555 1127 712 2385 459
3685 -311 1599 -1183 2834 -2724 3859 -1608 1070 -3492 1649 -5890 1811 -374
25 -566 31 -1075 35 -300 2 -642 -1 -760 -5z"/>
<path d="M35075 25914 c-354 -55 -688 -216 -953 -460 -271 -249 -461 -586
-540 -954 -42 -193 -44 -280 -39 -1930 4 -1617 5 -1657 47 -2035 100 -897 375
-1622 834 -2200 106 -133 394 -420 531 -529 795 -632 1946 -1011 3455 -1135
449 -37 650 -45 1180 -46 622 0 818 12 1340 86 235 33 283 49 315 101 19 31
20 52 20 343 0 292 -1 312 -20 344 -11 19 -38 43 -59 54 -36 19 -45 20 -120 8
-478 -72 -918 -88 -1241 -46 -508 67 -939 272 -1274 606 -564 562 -893 1482
-1001 2794 -32 398 -34 493 -39 2665 l-6 2205 -23 43 c-14 27 -41 54 -69 73
l-47 29 -1100 -1 c-886 -1 -1119 -4 -1191 -15z"/>
<path d="M43815 25914 c-482 -74 -913 -340 -1201 -739 -78 -109 -203 -356
-244 -483 -38 -117 -66 -257 -80 -391 -7 -70 -10 -1558 -10 -4665 0 -2986 -4
-4625 -10 -4746 -49 -888 -207 -1573 -492 -2132 -239 -470 -562 -825 -976
-1073 -790 -473 -1969 -510 -3306 -105 -390 118 -895 319 -1239 492 -110 55
-171 60 -247 21 -54 -28 -59 -34 -312 -413 -141 -212 -268 -407 -282 -434 -47
-90 -28 -193 45 -263 19 -17 131 -81 249 -142 816 -417 1604 -685 2435 -825
992 -168 2148 -146 3160 60 616 126 1148 304 1681 564 468 228 853 478 1244
808 158 133 463 439 600 602 802 953 1257 2117 1385 3545 34 385 36 711 33
5480 l-3 4710 -28 47 c-17 29 -44 57 -71 73 l-43 25 -1099 -1 c-885 -1 -1117
-4 -1189 -15z"/>
</g>
</svg>
