<?xml version="1.0" encoding="utf-8"?>
<!-- Generator: Adobe Illustrator 18.0.0, SVG Export Plug-In . SVG Version: 6.00 Build 0)  -->
<!DOCTYPE svg PUBLIC "-//W3C//DTD SVG 1.1//EN" "http://www.w3.org/Graphics/SVG/1.1/DTD/svg11.dtd">
<svg version="1.1" id="Capa_1" xmlns="http://www.w3.org/2000/svg" xmlns:xlink="http://www.w3.org/1999/xlink" x="0px" y="0px"
	 width="80px" height="80px" viewBox="0 0 80 80" enable-background="new 0 0 80 80" xml:space="preserve">
<path d="M55.1,31.6c-0.6,0-1.6,0-2.2,0v16.8c0,0,0.9,0,2.9,0c4.7,0,6.9-3.5,6.9-8.3C62.8,35.2,59.6,31.6,55.1,31.6z"/>
<path d="M23.2,31.6h-1.8V40h1.3c3.9,0,4.4-2.9,4.4-4.1C27,33.8,26.2,31.6,23.2,31.6z"/>
<path d="M40,0C17.9,0,0,17.9,0,40s17.9,40,40,40s40-17.9,40-40S62.1,0,40,0z M23.4,40.8h-2.1v6.7l1.9,1.1v0.6h-6.6v-0.6l1.9-1.1v-15
	l-1.9-1.1v-0.6h8c3.2,0,5.8,1.6,5.8,4.4C30.4,38.8,26.9,40.8,23.4,40.8z M42,49.2h-6.2v-0.6l1.9-1.1v-5.2c0-0.5-0.3-1.2-0.7-2
	c-1.2-2.4-3-5.7-4.1-7.7L31,31.4v-0.6h6.4v0.6l-1.8,1.1c0,0,3.1,5.8,3.5,6.6s1.1,2.7,1.1,4.1v4.2l1.9,1.1v0.7H42z M46.9,31.4
	L45,32.5c-1.2,2-3.1,5.2-4.1,7.7c-0.3,0.8-0.6,2-0.7,2.6c0.4-3.9-0.6-5.2-0.6-5.2l2.7-5l-1.9-1.1v-0.6h6.5V31.4z M55.5,49.2h-7.3
	v-0.6l1.9-1.1v-15l-1.9-1.1v-0.6H56c3.7,0,10,1.9,10,9.3C66.1,46.4,60.7,49.2,55.5,49.2z"/>
<g>
	<path fill="#AD96DC" d="M40.4,31.5v-0.6h6.5v0.5L45,32.5c-1.2,2-3.1,5.2-4.1,7.7c-0.3,0.8-0.6,2-0.7,2.6c0.4-3.9-0.6-5.2-0.6-5.2
		l2.7-5L40.4,31.5z"/>
</g>
</svg>
